<?xml version="1.0" standalone="no"?>
<!DOCTYPE svg PUBLIC "-//W3C//DTD SVG 20010904//EN"
 "http://www.w3.org/TR/2001/REC-SVG-20010904/DTD/svg10.dtd">
<svg version="1.0" xmlns="http://www.w3.org/2000/svg"
 width="900.000000pt" height="726.000000pt" viewBox="0 0 900.000000 726.000000"
 preserveAspectRatio="xMidYMid meet">
<metadata>
Created by potrace 1.10, written by Peter Selinger 2001-2011
</metadata>
<g transform="translate(0.000000,726.000000) scale(0.100000,-0.100000)"
fill="#000000" stroke="none">
<path d="M1030 6625 c-93 -19 -135 -40 -192 -93 -57 -53 -85 -95 -114 -167
-18 -48 -19 -85 -19 -1145 l0 -1095 27 -58 c34 -72 98 -151 149 -183 94 -59
74 -57 704 -61 319 -2 590 -5 603 -8 l22 -5 0 -319 0 -320 -26 -20 c-34 -26
-54 -26 -88 0 l-26 20 0 253 c0 183 -3 255 -12 264 -9 9 -174 12 -679 12 -599
0 -667 -2 -673 -16 -10 -25 -7 -1342 3 -1410 22 -149 117 -264 261 -316 l65
-23 1105 0 c1057 0 1107 1 1160 19 144 49 219 126 266 276 18 57 30 364 16
400 -5 14 -92 129 -193 254 -200 249 -220 274 -294 368 -27 35 -52 65 -55 68
-4 3 -31 37 -61 75 -30 39 -60 77 -67 85 -7 8 -35 44 -63 80 -67 86 -147 185
-184 229 -17 20 -46 56 -65 81 -19 25 -37 47 -40 50 -7 6 -117 142 -145 179
-10 14 -53 69 -95 121 -99 125 -110 141 -110 168 0 13 -7 37 -16 53 -14 27
-14 33 0 53 14 22 153 189 332 398 114 134 123 128 -179 128 -183 0 -256 3
-265 12 -8 8 -12 63 -12 183 0 158 2 173 20 193 24 26 66 29 98 6 20 -14 22
-23 22 -119 0 -81 3 -107 16 -119 13 -14 51 -16 260 -16 151 0 253 4 265 10
10 6 37 34 59 61 22 28 62 76 90 107 48 55 224 265 453 541 62 74 134 159 160
190 71 81 79 102 72 169 -26 222 -139 352 -339 388 -104 19 -2122 17 -2216 -1z"/>
<path d="M3700 6621 c-7 -14 -10 -760 -10 -2340 0 -2119 1 -2321 16 -2336 15
-14 129 -15 1283 -13 l1266 3 59 23 c116 44 204 134 244 249 16 44 17 215 20
2038 3 2043 2 2073 -36 2155 -37 80 -117 163 -185 193 -106 47 -114 47 -1418
47 -1204 0 -1228 0 -1239 -19z m1915 -612 c54 -58 54 -41 0 -239 -20 -74 -40
-151 -44 -171 -4 -19 -11 -42 -16 -49 -5 -7 -12 -30 -16 -49 -4 -20 -24 -94
-44 -166 -20 -71 -40 -148 -44 -170 -4 -23 -11 -47 -16 -55 -4 -7 -12 -30 -16
-49 -4 -20 -24 -94 -44 -166 -20 -71 -40 -149 -45 -173 -5 -24 -13 -48 -16
-54 -4 -6 -11 -28 -15 -47 -4 -20 -24 -94 -44 -166 -20 -71 -40 -149 -45 -173
-5 -24 -13 -48 -16 -54 -4 -6 -11 -28 -15 -47 -4 -20 -24 -94 -44 -166 -20
-71 -39 -146 -42 -165 -3 -19 -9 -40 -14 -46 -5 -6 -13 -31 -18 -55 -10 -45
-62 -245 -80 -302 -29 -95 -108 -384 -131 -477 -13 -53 -68 -250 -74 -266 -10
-25 -33 -15 -80 36 -31 33 -45 56 -42 68 3 9 16 61 30 116 14 54 30 112 35
130 24 78 44 149 71 256 17 63 36 138 44 165 8 28 22 75 31 105 21 72 71 266
80 307 3 18 11 35 16 38 5 4 9 18 9 33 0 14 6 44 14 67 8 22 29 96 46 165 17
69 36 136 41 149 6 14 14 43 19 65 5 23 25 100 45 171 20 72 40 146 44 166 4
19 11 41 15 47 3 6 11 30 16 54 5 24 25 102 45 173 20 72 40 146 44 165 4 19
13 45 19 57 7 12 12 35 12 50 0 16 4 33 9 39 5 5 14 32 20 59 6 28 21 84 32
125 11 41 24 91 29 110 5 19 16 58 24 85 8 28 30 109 49 181 34 131 51 174 66
174 5 0 30 -23 56 -51z"/>
<path d="M6707 6622 c-15 -16 -17 -48 -17 -244 l0 -226 76 -94 c42 -51 85
-104 96 -117 11 -13 67 -80 125 -150 58 -69 126 -147 152 -173 l45 -48 433 0
c417 0 433 1 443 19 14 27 14 1005 0 1032 -10 18 -28 19 -674 19 -630 0 -664
-1 -679 -18z"/>
<path d="M3540 5910 c-17 -18 -87 -101 -157 -184 -70 -83 -161 -191 -202 -241
-42 -49 -81 -94 -87 -100 -6 -5 -26 -30 -44 -55 -18 -25 -38 -50 -44 -55 -53
-52 -76 -83 -70 -98 6 -15 36 -17 314 -17 267 0 311 2 324 16 14 13 16 62 16
384 0 242 -4 371 -10 375 -6 4 -24 -8 -40 -25z"/>
<path d="M6690 5758 c0 -114 4 -168 12 -176 13 -13 252 -18 282 -6 14 5 13 10
-6 38 -54 77 -252 301 -269 304 -18 3 -19 -6 -19 -160z"/>
<path d="M6702 5442 c-10 -7 -12 -275 -10 -1307 3 -1163 5 -1300 18 -1303 10
-1 37 24 68 65 49 64 75 97 163 204 20 24 152 190 295 369 142 179 261 327
264 330 8 7 431 538 460 577 28 38 22 55 -39 119 -20 21 -52 59 -71 84 -18 25
-38 50 -44 55 -7 6 -56 64 -111 129 -55 66 -121 144 -147 175 -108 128 -165
196 -190 228 -15 19 -46 56 -70 83 -24 26 -72 82 -106 124 l-64 76 -201 0
c-111 0 -208 -4 -215 -8z"/>
<path d="M7297 5443 c-6 -6 33 -66 59 -88 11 -10 281 -331 429 -511 116 -142
258 -304 266 -304 18 0 19 55 17 475 l-3 430 -381 3 c-209 1 -383 -1 -387 -5z"/>
<path d="M2789 5010 c-9 -5 -50 -49 -90 -97 -41 -49 -83 -99 -95 -113 -12 -14
-41 -47 -64 -75 -23 -27 -51 -61 -64 -75 -12 -14 -37 -45 -56 -70 -19 -24 -52
-63 -72 -85 -45 -48 -47 -70 -10 -111 15 -17 48 -58 73 -90 87 -111 269 -339
298 -374 16 -19 48 -60 72 -90 23 -30 45 -57 48 -60 7 -6 118 -144 146 -181
21 -28 167 -211 213 -267 15 -19 104 -129 197 -245 94 -117 177 -212 185 -212
22 0 22 1764 1 1840 -24 83 -56 137 -118 196 -70 67 -123 92 -226 107 -93 14
-415 15 -438 2z"/>
<path d="M8024 4268 c-28 -33 -775 -965 -799 -997 -11 -15 -92 -117 -180 -227
-88 -109 -167 -207 -175 -218 -8 -10 -27 -33 -41 -50 -14 -17 -51 -64 -82
-105 l-57 -73 0 -363 0 -364 -24 -28 -24 -28 -729 -5 -728 -5 -3 -590 c-2
-546 -1 -591 15 -603 22 -16 2287 -18 2458 -2 124 12 182 30 240 74 82 63 120
117 151 211 18 58 19 106 19 1724 0 1158 -3 1665 -11 1668 -5 2 -19 -7 -30
-19z"/>
</g>
</svg>
